<svg width="100" height="100" fill="none" xmlns="http://www.w3.org/2000/svg"><rect width="100" height="100" rx="50" fill="#fff"/><path d="M48.63 74.5V77.77a.66.66 0 0 1-.43.67 4.01 4.01 0 0 1-3.25-.02.7.7 0 0 1-.42-.68l-.23-2.4-.1-.87c-.15-.02-.28-.04-.42-.04-3.68-.11-7.37-.19-11.05-.34-2.77-.12-5.54-.3-8.3-.52a4.75 4.75 0 0 1-4.14-2.88 7.4 7.4 0 0 1-.7-3.16c0-1.62.03-3.23.06-4.85.04-1.36-.1-2.73-.4-4.07a2.68 2.68 0 0 0-1.07-1.69 2.22 2.22 0 0 1-.93-1.7 6.4 6.4 0 0 1 .16-2.19 3.6 3.6 0 0 1 3.05-2.8c.56-.07 1.11-.1 1.67-.11h.5c-.12-.66-.27-1.3-.35-1.95-.07-.61-.07-1.23-.1-1.84l-.04-1.58c-.08-1.35.8-2.4 2.2-2.63 1.36-.22 2.74-.17 4.12-.07.95.07 1.91.1 2.92.16.19-.98.37-1.95.1-2.92a1.7 1.7 0 0 0-.47-.73c-.32-.3-.67-.56-1.04-.8a5.26 5.26 0 0 1-2.37-3.56c-.2-1-.24-2.03-.14-3.04a5.04 5.04 0 0 1 1.65-3.26c.48-.46 1-.88 1.56-1.23a46.57 46.57 0 0 1 10.5-4.83 13.2 13.2 0 0 1 4.7-.6 9.04 9.04 0 0 1 7.63 4.73c2.88 4.94.52 11.48-4.86 13.59a9.97 9.97 0 0 1-6.62.29c-.68-.2-1.38-.37-2.08-.51a3.14 3.14 0 0 0-1.95.24 7.72 7.72 0 0 0-3.35 2.61l-.11.18a.81.81 0 0 0-.04.16l.6-.05a8.8 8.8 0 0 1 2.87.04c.33.07.64.19.93.35a1.75 1.75 0 0 0 1.35.2 7.36 7.36 0 0 1 2.24-.17c.48-.02.97-.07 1.45-.16a23.3 23.3 0 0 1 4.18-.15c1.8.1 3.59.23 5.38.34.31.02.63.02.94.03 1.4 0 2.23.34 3.22 1.31.4-.4.79-.82 1.19-1.21.31-.31.62-.62.96-.9 1.47-1.2 2.89-1.26 4.46-.17.47.33.92.7 1.36 1.07.24.22.57.34.9.32 1.6-.02 3.21-.03 4.82 0 .6.02 1.18.1 1.76.21.3.07.6.2.87.36.59.34.84.87.87 1.56.05 1.02.19 2.03.29 3.04.02.22.17.26.36.3.8.17 1.61.31 2.4.55.57.19 1.13.44 1.66.74a1.34 1.34 0 0 1 .72.93c.03.13.11.24.22.32.39.28.68.67.83 1.12.42 1.14.64 2.3.28 3.5-.28.93-.8 1.67-1.7 2.09a2.6 2.6 0 0 0-1.28 1.34 5.5 5.5 0 0 0-.48 1.98l-.6 8.83a3.44 3.44 0 0 1-1.56 2.71 5.8 5.8 0 0 1-2.87 1.06c-1.38.1-2.76.15-4.14.18-4.83.1-9.67.2-14.5.28-1.75.02-3.5 0-5.24 0h-.6Zm2.4-25.78c.26.3.46.5.62.72a1.88 1.88 0 0 1 .28 1.89c-.2.55-.55 1.03-1.02 1.38a1.44 1.44 0 0 1-1.66.15 3.8 3.8 0 0 1-.87-.66c-.29-.31-.54-.64-.78-1-.58-.84-1.18-1.06-2.15-.74-1.28.42-2.6.7-3.94.81-1.71.13-3.42.17-5.13.12a2.7 2.7 0 0 1-1.48-.45 19.24 19.24 0 0 0-4.36-2.15 8.06 8.06 0 0 0-2.82-.47 3.62 3.62 0 0 0-3.38 2.9c-.1.53-.1 1.08.02 1.6.2.8.7 1.37 1.3 1.92a13.04 13.04 0 0 0 3.86 2.56c.8.35 1.52.88 2.1 1.55a10 10 0 0 1 1.48 2.29c.8 1.7 1.26 3.54 1.34 5.42.1 1.89.68 3.68 1.33 5.44.23.6.68 1.09 1.26 1.36a.99.99 0 0 0 1.28-.23c.21-.24.4-.5.53-.78.44-.93.57-1.97.39-2.98-.09-.55-.27-1.09-.37-1.64-.28-1.54 0-3.04.34-4.53.09-.4.41-.57.85-.51 1.47.18 2.94.4 4.42.56 1.44.15 2.88.3 4.32.35 2.08.07 4.16.05 6.24.04.78 0 1.57.02 2.33-.21a7.34 7.34 0 0 0 4.65-4.04c.23-.48.43-.96.63-1.45a8.19 8.19 0 0 1 4-4.41c.08-.06.17-.12.25-.2-.3-.04-.61-.04-.92 0-.27.01-.52.2-.92.1.1-.06.2-.12.3-.16.7-.23 1.45-.27 2.18-.13.56.11 1.13.2 1.7.25 1.62.1 3.24.2 4.87.27.74.05 1.5.05 2.24 0 1.4-.13 2.4-1.08 3.46-1.87a.4.4 0 0 0 .07-.08.72.72 0 0 0 0-1c-.16-.2-.34-.36-.56-.48a7.17 7.17 0 0 0-1.49-.62c-1.37-.33-2.76-.6-4.14-.87-1.15-.22-2.3-.39-3.45-.63a16.3 16.3 0 0 0-3.68-.44 9.37 9.37 0 0 0-6.23 2.22c-.36.32-.64.33-1.04.05-2.08-1.44-4.4-1.78-6.85-1.48-.44.05-.88.16-1.4.26ZM23 50.52a6.36 6.36 0 0 0-2.31-.06 3.42 3.42 0 0 0-2.99 2.58 6.56 6.56 0 0 0-.2 1.87 2.15 2.15 0 0 0 .88 1.83c.64.46.95 1.09 1.13 1.82.27 1.04.4 2.1.4 3.18 0 1.77-.02 3.54-.04 5.31-.04 1.06.13 2.11.48 3.1a4.7 4.7 0 0 0 4.28 3.2c1.5.13 3 .23 4.49.31 2.35.13 4.7.23 7.06.32 1.8.07 3.6.1 5.4.14.7.01 1.39.05 2.09.06.13 0 .26-.02.4-.05l-.01-.62a.68.68 0 0 1 .4-.78c.47-.22.95-.42 1.42-.63l.38-.13-.02-.46c0-.33.07-.41.37-.45.44-.05.73.06.7.34-.06.65.3.9.8 1.1l.18.1a.87.87 0 0 1 .44.85c0 .24 0 .5.03.74l.56.03c5.49.02 10.97 0 16.45-.19 2.34-.08 4.68-.14 7.01-.24a5.72 5.72 0 0 0 3.2-1.15 3.07 3.07 0 0 0 1.27-2.05c.06-.32.06-.66.08-1l.52-7.7c.02-.76.15-1.51.4-2.23.3-.77.76-1.42 1.53-1.78a2.9 2.9 0 0 0 1.6-2.04c.32-1.29.07-2.5-.52-3.67-.14-.2-.3-.4-.5-.56-.28.26-.5.5-.74.68-.38.3-.77.55-1.16.82-.77.56-1.7.85-2.65.83h-1.31a.5.5 0 0 0-.52.26c-.26.46-.5.93-.52 1.47-.03 1.35-.05 2.7-.05 4.05 0 .53.1 1.05.27 1.55.12.36.2.74.27 1.12.17.7.18 1.43.05 2.14-.22.9-.72 1.5-1.67 1.66l-.68.08c-2.03.28-4.07.6-6.1.83a102.45 102.45 0 0 1-12.34.64c-2.44 0-4.89-.06-7.33-.12a91.6 91.6 0 0 1-3.09-.13c-.71-.04-1.42-.11-2.13-.16-.5-.04-1-.06-1.52-.08-.1.3.04.57.09.84.1.65.27 1.3.32 1.96.09.99-.15 1.98-.68 2.82-.62 1-1.5 1.15-2.43.42a2.75 2.75 0 0 1-.97-1.34 71.07 71.07 0 0 1-.93-3.12c-.17-.66-.26-1.34-.4-2.04l-1.55-.2-6.32-.85c-1.21-.15-1.96-.84-2.31-2a4.91 4.91 0 0 1 .45-3.9c.25-.46.22-.56-.21-.85-.09-.06-.18-.1-.28-.14-.43-.15-.8-.43-1.07-.81-.29-.4-.6-.78-.87-1.18a1.56 1.56 0 0 1-.3-.61 2.68 2.68 0 0 0-1.1-1.78c-.58-.43-.53-.96.07-1.36.2-.1.39-.23.55-.39.6-.7 1.17-1.43 1.8-2.2Zm21.77-29.1c-1.06.04-2.11.22-3.13.52a45.16 45.16 0 0 0-10.98 5c-.51.34-.99.72-1.42 1.15a4.9 4.9 0 0 0-1.57 3.18c-.1.98-.05 1.97.15 2.93a5 5 0 0 0 2.23 3.36c.27.17.5.38.77.55a2.12 2.12 0 0 1 1 2.02c-.05.8-.16 1.6-.25 2.4-.07.63-.17 1.25-.22 1.88-.02.23-.01.52.26.64a.6.6 0 0 0 .67-.19 7 7 0 0 0 .76-.8c.48-.62.95-1.26 1.39-1.91.8-1.2 1.94-2 3.2-2.63.76-.4 1.62-.53 2.45-.37.66.14 1.33.3 1.98.5 1.83.56 3.78.57 5.62.03a9.42 9.42 0 0 0 6.68-10.9c-.7-3.6-4.03-7.4-9.6-7.35Zm-21.6 28.7c.05-.01.1-.02.11-.05.57-.7 1.07-1.47 1.5-2.27.2-.43.47-.82.8-1.16.44-.48.9-.39 1.22.18.06.1.09.23.15.34l.3.54a.66.66 0 0 0 .69.37c.71-.01 1.43.09 2.11.3l.54.13c.11-.57.29-.78.65-.8a.67.67 0 0 1 .64.36c.1.26.01.44-.4.77l.67.3c.08.03.22.08.25.04.26-.28.48-.04.7.06l.88.35c.1.05.19.1.28.17l-.01.12-.48.06c.46.28.92.53 1.36.83.38.25.82.38 1.28.38h3.25c.17-.01.33-.03.5-.06.02-.12.02-.24.02-.37-.14-2.22-.2-4.45-.83-6.6-.01-.1 0-.21.02-.31l.12-.03c.08.12.15.25.2.38.1.3.18.6.24.92.3 1.57.47 3.16.53 4.75.02.4.06.79.09 1.18.09.02.18.04.27.04 1.3-.04 2.57-.25 3.81-.61.18-.07.33-.18.45-.33.85-1 2-1.67 3.29-1.91a3.2 3.2 0 0 1 2.1.2 1 1 0 0 0 .7.04c1.12-.27 2.27-.38 3.42-.33l.92.08.11-.15c.56-1.08 1.12-2.18 1.7-3.26a.42.42 0 0 0-.11-.55 3.06 3.06 0 0 0-1.95-.92c-.73-.07-1.46-.08-2.2-.13-1.8-.1-3.62-.24-5.43-.3-1.1-.02-2.2.02-3.29.11-.85.06-1.68.25-2.55.2a7 7 0 0 0-1.5.17c-.48.12-.98.05-1.41-.19a3.46 3.46 0 0 0-1.95-.5c-.65.02-1.3.11-1.93.1-.55-.02-.87.22-1.15.65-.3.45-.64.88-1 1.28-.18.21-.4.4-.64.53-.57.33-1.06.07-1.11-.59-.01-.35 0-.7.05-1.05.03-.35.08-.7.13-1.1-.24 0-.42-.02-.59-.03-.8-.04-1.6-.06-2.4-.13a15.59 15.59 0 0 0-3.76.04c-1.2.18-2.22.9-2.1 2.52.02.44 0 .88.02 1.32.03 1.05.03 2.1.3 3.13.07.3.13.62.42.8Zm50 10.68-.21.02c-1.66.3-3.32.64-4.99.9a119.6 119.6 0 0 1-7.94.93c-.3.03-.58.11-.83.27a6.67 6.67 0 0 1-3.58 1c-1.68 0-3.35.02-5.03 0-1.17 0-2.34 0-3.5-.11-1.84-.18-3.67-.44-5.5-.66a102.11 102.11 0 0 0-1.8-.18.46.46 0 0 0-.35.38c-.25 1.04-.4 2.1-.42 3.18 0 .33.06.38.4.4.46.04.9.08 1.36.1 1.9.11 3.8.26 5.7.3 2.94.08 5.9.22 8.84.08 1.7-.07 3.39-.09 5.08-.18a112.66 112.66 0 0 0 8.68-.87c.97-.13 1.93-.32 2.9-.45 1.06-.15 1.6-.6 1.73-1.64a7.45 7.45 0 0 0-.53-3.47Zm-.07-.34V60c-.02-.37-.06-.73-.06-1.1.01-.93.02-1.86.05-2.79.03-.71.05-.71-.62-1l-.69-.25c-1.75-.56-3.6-.73-5.42-.48a2.58 2.58 0 0 0-1.76.99c-.73.82-1.32 1.77-1.74 2.79-.15.37-.33.73-.49 1.1A8.03 8.03 0 0 1 60.45 62l-.3.34c4.4-.4 8.66-.91 12.94-1.87ZM70.73 48a7.1 7.1 0 0 0-.47-.6c-.5-.5-.97-1.01-1.5-1.46-1.44-1.2-2.89-2.39-4.34-3.57a5.26 5.26 0 0 0-.74-.49 2.88 2.88 0 0 0-3.35.16 9.96 9.96 0 0 0-2.73 2.8c-.63 1.03-1.13 2.13-1.69 3.2l-.06.24.17.06c1.22.24 2.38.74 3.4 1.44.32.23.48.2.8-.07a8.73 8.73 0 0 1 2.24-1.42c.08-.03.15-.08.22-.12-.66-.8-.66-.8-.6-1l.62.67a.52.52 0 0 0 .61.14c1.92-.63 3.88-.64 5.85-.3l1.57.32ZM24.87 59.68a4.67 4.67 0 0 0-.5 4.27 2.13 2.13 0 0 0 1.68 1.42c.88.16 1.76.3 2.64.4 1.6.22 3.22.41 4.83.6.19.02.38.02.57.01l.02-.35c-.03-1.7-.55-3.27-1.26-4.8-.12-.26-.34-.31-.6-.34l-1.9-.28-3.2-.52c-.23.28-.49.55-.76.8-.39.32-.63.26-.9-.16-.2-.3-.37-.63-.62-1.05Zm49.98-11.03v-.37c-.1-.99-.17-1.98-.3-2.97-.03-.3-.15-.57-.35-.8a2.75 2.75 0 0 0-.91-.57 5.57 5.57 0 0 0-2.06-.31c-1.45-.02-2.9 0-4.34 0l-.4.03 3.26 2.77c.21-.13.43-.23.66-.33.22-.07.43-.34.73-.01l-1.12.6c.31.39.61.73.87 1.1a.73.73 0 0 0 .56.33c.84.12 1.68.26 2.53.4l.87.13ZM45.42 50.1h.27c.91-.13 1.6.23 2.09.99.1.15.19.3.3.43.3.45.7.83 1.16 1.1a1.28 1.28 0 0 0 1.6-.13c.41-.33.72-.77.9-1.26a1.65 1.65 0 0 0-.17-1.56 2.85 2.85 0 0 0-1.45-1.15 3.26 3.26 0 0 0-2-.02 5.5 5.5 0 0 0-2.7 1.6ZM32.47 60.6c-.46-1.14-2.13-2.9-3.04-2.97l-.84 1.19c-.3.4-.86.48-1.24.97l5.12.82Zm13 17.01c.56.19 1.17.24 1.77.16.46-.05.53-.15.53-.6l-.02-1.2-.04-1.1h-2.57l.32 2.74Zm2.9-4.27-1.04.2c-.1.3-.08.53.23.67a.69.69 0 0 1 .42.71c0 .76.02 1.51.07 2.26.05.63-.24.78-.66.81a9.8 9.8 0 0 1-1.71-.05c-.42-.04-.46-.12-.51-.53l-.3-2.61a.45.45 0 0 1 .21-.5c.3-.16.63-.29.95-.42.14-.06.34.01.45-.18a6.6 6.6 0 0 0-2.15-.22l.43 4.28a.6.6 0 0 0 .44.52c.85.34 1.8.36 2.67.05.49-.17.54-.24.54-.76v-3.84c0-.12-.02-.24-.04-.39Zm25.34-19.42c-.7-.04-1.29-.05-1.88-.1-1.32-.1-2.65-.18-3.96-.36-.58-.08-.91.21-1.31.5 2.28-.15 4.5.06 6.61 1.1l.54-1.14ZM44.49 73.11c.63.17 1.29.23 1.94.18l-.08-.96c-.69.04-1.34.32-1.86.78Zm3.79 0 .01-.14c-.3-.21-.57-.46-1-.48v.82l.99-.2Zm-3.03 1.47h1.3l-.1-.43a1.31 1.31 0 0 0-1.2.43ZM31.57 48.23c-.26-.21-.42-.25-.51-.1a.25.25 0 0 0 0 .23.3.3 0 0 0 .48-.04.4.4 0 0 0 .03-.09Z" fill="#000"/><path d="M51.03 48.72c.52-.1.96-.2 1.4-.26 2.46-.3 4.77.04 6.85 1.48.4.28.68.27 1.04-.05a9.37 9.37 0 0 1 6.23-2.22c1.24 0 2.47.15 3.68.44 1.14.24 2.3.41 3.45.63 1.38.28 2.77.54 4.14.87.52.15 1.02.36 1.5.62.2.12.4.28.54.48a.72.72 0 0 1 0 1 .4.4 0 0 1-.06.08c-1.06.8-2.05 1.74-3.46 1.86-.74.06-1.5.06-2.24.01-1.63-.07-3.25-.16-4.87-.27-.57-.06-1.14-.14-1.7-.25a4.38 4.38 0 0 0-2.17.13l-.3.15c.39.12.64-.08.91-.1.3-.03.61-.03.92.01-.08.08-.17.14-.26.2a8.19 8.19 0 0 0-3.99 4.41c-.2.49-.4.97-.63 1.45a7.34 7.34 0 0 1-4.65 4.04c-.76.23-1.55.21-2.33.21-2.08 0-4.16.03-6.24-.04-1.44-.04-2.88-.2-4.32-.35-1.48-.16-2.95-.38-4.42-.56-.44-.06-.76.11-.85.5-.34 1.5-.62 3-.34 4.54.1.55.28 1.09.37 1.64.18 1 .05 2.05-.39 2.98a3.4 3.4 0 0 1-.53.78 1 1 0 0 1-1.28.23A2.43 2.43 0 0 1 35.77 72a18.5 18.5 0 0 1-1.33-5.44 13.92 13.92 0 0 0-1.34-5.42 10 10 0 0 0-1.48-2.3 5.88 5.88 0 0 0-2.1-1.54 13.04 13.04 0 0 1-3.87-2.56 3.98 3.98 0 0 1-1.29-1.92 3.67 3.67 0 0 1 3.36-4.5c.96-.01 1.92.15 2.82.47 1.54.53 3 1.25 4.36 2.15.44.29.95.45 1.48.45 1.7.05 3.42.01 5.13-.12a17.6 17.6 0 0 0 3.94-.8c.97-.33 1.57-.1 2.15.74.24.35.5.68.78.99.25.26.55.48.87.66a1.43 1.43 0 0 0 1.66-.15c.47-.35.82-.83 1.02-1.38a1.88 1.88 0 0 0-.28-1.89c-.16-.22-.36-.42-.62-.72Zm-21 2.1c-.25 0-.4.1-.42.29-.02.26.3.53.65.53.2 0 .4-.04.42-.3.03-.26-.3-.52-.65-.52Zm-.6 2.88c.05-.03.23-.07.26-.16a.55.55 0 0 0-.06-.42c-.15-.24-.6-.36-.78-.22a.45.45 0 0 0-.14.35c.02.23.35.43.73.45Z" fill="#fff"/><path d="M22.99 50.52c-.63.77-1.2 1.5-1.8 2.2-.16.16-.35.29-.55.4-.6.39-.65.92-.08 1.35a2.66 2.66 0 0 1 1.11 1.78c.06.22.16.43.3.6.28.41.58.8.87 1.19.26.38.64.66 1.07.8.1.04.2.1.28.15.43.29.46.39.2.85a4.91 4.91 0 0 0-.44 3.9c.35 1.16 1.1 1.85 2.3 2l6.33.84 1.55.2c.14.71.23 1.39.4 2.05.28 1.04.6 2.08.93 3.12.18.54.52 1 .97 1.34.93.73 1.81.58 2.43-.42.53-.84.77-1.83.68-2.82-.05-.66-.21-1.31-.32-1.96-.05-.27-.2-.53-.1-.84.52.02 1.03.04 1.53.08.7.05 1.42.12 2.13.16 1.03.06 2.06.11 3.09.13 2.44.06 4.89.12 7.33.12a102.45 102.45 0 0 0 12.33-.64c2.04-.22 4.08-.55 6.11-.83l.68-.08c.95-.15 1.45-.76 1.67-1.66.13-.7.12-1.44-.05-2.14a8.83 8.83 0 0 0-.27-1.12 4.92 4.92 0 0 1-.27-1.55c0-1.35.02-2.7.05-4.05.01-.54.26-1 .52-1.47a.5.5 0 0 1 .52-.27c.44.02.87 0 1.31.01.95.02 1.88-.27 2.65-.83.39-.27.78-.53 1.16-.82.24-.19.46-.42.74-.68.2.16.36.35.5.56.59 1.16.84 2.38.52 3.67a2.9 2.9 0 0 1-1.6 2.04 3.07 3.07 0 0 0-1.53 1.78 7.32 7.32 0 0 0-.4 2.22l-.52 7.72c-.02.33-.02.67-.08 1a3.09 3.09 0 0 1-1.26 2.04c-.93.7-2.05 1.1-3.2 1.15-2.34.1-4.68.16-7.02.24-5.48.19-10.96.21-16.45.19l-.56-.03-.03-.74a.87.87 0 0 0-.44-.84 1.06 1.06 0 0 0-.17-.12c-.5-.19-.87-.44-.81-1.09.03-.28-.26-.39-.7-.34-.3.04-.38.12-.37.45l.02.46-.38.13c-.47.2-.95.4-1.42.63a.67.67 0 0 0-.4.78v.62a2.6 2.6 0 0 1-.4.05c-.7-.02-1.39-.05-2.09-.06-1.8-.05-3.6-.07-5.39-.14-2.35-.08-4.7-.19-7.06-.32-1.5-.08-3-.18-4.5-.3a4.7 4.7 0 0 1-4.27-3.2c-.35-1-.52-2.05-.48-3.1.02-1.78.04-3.55.04-5.32 0-1.07-.13-2.14-.4-3.18a2.97 2.97 0 0 0-1.13-1.82 2.14 2.14 0 0 1-.88-1.83c-.03-.63.04-1.26.2-1.87a3.45 3.45 0 0 1 2.99-2.58c.76-.12 1.55-.1 2.3.06Z" fill="#919191"/><path d="M44.76 21.43c5.56-.05 8.9 3.74 9.59 7.36a9.5 9.5 0 0 1-6.68 10.9c-1.84.53-3.8.52-5.62-.04-.65-.2-1.32-.36-1.98-.5a3.68 3.68 0 0 0-2.44.37 8.04 8.04 0 0 0-3.21 2.63c-.44.65-.91 1.29-1.4 1.91a7 7 0 0 1-.75.8.61.61 0 0 1-.67.19c-.27-.12-.28-.4-.26-.64.05-.63.15-1.25.22-1.88.09-.8.2-1.6.25-2.4a2.13 2.13 0 0 0-1-2.02c-.26-.17-.5-.38-.77-.55a5 5 0 0 1-2.23-3.36 9.79 9.79 0 0 1-.15-2.93 4.9 4.9 0 0 1 1.57-3.18c.43-.43.91-.81 1.42-1.15a45.16 45.16 0 0 1 10.98-5c1.02-.3 2.07-.48 3.13-.51Zm2.54 13.92v-8.1c-.59-.11-11.03-.1-11.43.01v8.09H47.3Z" fill="#fff"/><path d="M23.16 50.13c-.29-.18-.35-.5-.43-.8-.26-1.03-.26-2.08-.29-3.13-.01-.44 0-.88-.03-1.32-.1-1.62.9-2.34 2.11-2.52 1.25-.16 2.5-.18 3.76-.04.8.07 1.6.09 2.4.13l.59.04c-.05.38-.1.74-.13 1.1-.05.34-.06.7-.05 1.04.05.66.54.92 1.11.6.24-.15.46-.33.64-.54.36-.4.7-.83 1-1.28.28-.43.6-.67 1.15-.65.64.01 1.28-.08 1.93-.1.68-.02 1.36.15 1.95.5.43.24.93.31 1.41.2a7 7 0 0 1 1.5-.17c.87.04 1.7-.15 2.55-.2 1.1-.1 2.2-.14 3.3-.12 1.8.06 3.61.2 5.42.3.74.05 1.47.06 2.2.13.74.06 1.43.38 1.95.92a.42.42 0 0 1 .1.55l-1.69 3.26c-.03.06-.07.1-.11.15l-.92-.08c-1.15-.05-2.3.06-3.42.33a1 1 0 0 1-.7-.04 3.2 3.2 0 0 0-2.1-.2 5.76 5.76 0 0 0-3.3 1.9c-.1.16-.26.27-.44.34-1.24.36-2.52.57-3.8.61-.1 0-.2-.02-.28-.04-.03-.39-.07-.78-.09-1.18-.06-1.6-.24-3.18-.53-4.75-.06-.31-.14-.62-.23-.92a2.19 2.19 0 0 0-.21-.38l-.12.03c-.03.1-.03.2-.02.3.63 2.16.69 4.4.83 6.61 0 .13 0 .25-.02.37-.17.03-.33.05-.5.06H36.4c-.46 0-.9-.13-1.28-.38-.44-.3-.9-.55-1.36-.83l.48-.06.01-.12-.28-.17-.88-.35c-.22-.1-.44-.34-.7-.06-.03.04-.17 0-.25-.04l-.67-.3c.41-.33.5-.5.4-.77a.67.67 0 0 0-.64-.37c-.36.03-.54.24-.65.81l-.54-.13a6.68 6.68 0 0 0-2.11-.3.66.66 0 0 1-.68-.37l-.31-.54c-.06-.11-.1-.23-.15-.34-.32-.57-.78-.66-1.23-.18-.32.34-.59.73-.8 1.16-.42.8-.92 1.57-1.49 2.27-.02.03-.06.04-.1.06ZM47.9 47.8l.07-.11c-.34-.47-.9-.57-1.41-.72-1.62-.48-2.22-.56-2.62-.3.7.24 1.37.27 2 .47.66.21 1.3.44 1.96.66Zm-14.85-.19c.43.06.79-.17 1.17-.28.42-.13.83-.26 1.24-.42.36-.14.8-.14 1.15-.43-.26-.23-.47-.1-.65-.05-1.47.38-2.67.84-2.91 1.18Zm-3.66-.36.06-.12-.86-.4c-.31-.17-.61-.35-.93-.5-.28-.15-.5-.42-.85-.41-.1.24.08.3.2.38 1.04.72 1.92 1.1 2.38 1.05Zm20.5.16.06.1 1.24-.7c.41-.25.93-.3 1.34-.68-.4-.11-.5-.09-1.32.3-.9.44-1.18.64-1.33.98Zm-4.54.97c.42.24 1.24.23 1.56 0-.33-.24-1.12-.25-1.56 0Z" fill="#C9C9C9"/><path d="M73.17 60.8c.4 1.14.68 2.28.53 3.47-.13 1.03-.67 1.49-1.73 1.64-.97.13-1.93.32-2.9.45a117.18 117.18 0 0 1-8.68.87c-1.7.1-3.39.1-5.08.18-2.95.14-5.9 0-8.84-.07-1.9-.05-3.8-.2-5.7-.3l-1.36-.1c-.34-.03-.4-.08-.4-.41a15.21 15.21 0 0 1 .48-3.35.45.45 0 0 1 .48-.21l1.6.18c1.84.22 3.67.48 5.5.66 1.17.1 2.34.1 3.51.12 1.68.01 3.35 0 5.03-.01 1.26.01 2.5-.34 3.58-1 .25-.16.54-.24.83-.26a119.6 119.6 0 0 0 7.94-.93c1.67-.27 3.33-.6 4.99-.9.05-.02.1-.02.22-.03Z" fill="#8F8F8F"/><path d="M73.09 60.46a98.8 98.8 0 0 1-12.93 1.87c.09-.12.18-.23.29-.34a8.03 8.03 0 0 0 1.91-2.74c.16-.37.34-.73.49-1.1a10.11 10.11 0 0 1 1.74-2.8 2.6 2.6 0 0 1 1.76-.98 12.31 12.31 0 0 1 6.1.74c.68.28.66.28.63 1-.03.92-.04 1.85-.05 2.78 0 .37.04.73.05 1.1v.47Z" fill="#8F8F8F"/><path d="M70.73 48c-.59-.12-1.08-.23-1.57-.31a11.86 11.86 0 0 0-5.85.29.52.52 0 0 1-.6-.14l-.64-.67c-.05.2-.05.2.61 1-.07.04-.14.09-.22.12-.81.36-1.57.84-2.25 1.42-.31.28-.47.3-.8.07a9.13 9.13 0 0 0-3.56-1.5l.06-.24c.56-1.07 1.06-2.17 1.69-3.2a9.96 9.96 0 0 1 2.73-2.8c1.07-.78 2.2-.8 3.35-.16.26.14.5.3.74.49 1.45 1.18 2.9 2.36 4.33 3.57.54.45 1.02.96 1.5 1.46.18.2.34.4.48.6Z" fill="#fff"/><path d="m24.87 59.68.62 1.05c.27.42.51.48.9.16.27-.25.53-.52.77-.8l3.18.52c.64.1 1.28.2 1.92.28.25.03.47.08.59.35.7 1.52 1.23 3.1 1.26 4.8l-.02.34h-.57l-4.83-.6c-.88-.12-1.76-.25-2.64-.4a2.11 2.11 0 0 1-1.68-1.43 4.67 4.67 0 0 1 .5-4.27Z" fill="#8F8F8F"/><path d="m74.85 48.65-.87-.13c-.85-.14-1.69-.28-2.53-.4a.73.73 0 0 1-.56-.33c-.26-.37-.56-.71-.87-1.1l1.12-.6c-.3-.33-.51-.06-.73.01-.23.1-.45.2-.66.33l-3.27-2.77.4-.04c1.46 0 2.9-.01 4.35.01.7-.03 1.4.08 2.06.3.34.14.65.34.91.59.2.22.32.5.35.79.13.99.2 1.98.3 2.97v.37Z" fill="#C9C9C9"/><path d="M45.42 50.1a5.5 5.5 0 0 1 2.7-1.59c.65-.2 1.35-.2 2 .02.6.21 1.11.62 1.45 1.15a1.65 1.65 0 0 1 .17 1.56c-.18.49-.49.93-.9 1.26a1.28 1.28 0 0 1-1.6.14 3.8 3.8 0 0 1-1.17-1.1 7.6 7.6 0 0 1-.3-.44c-.49-.76-1.17-1.12-2.08-1h-.27Z" fill="#fff"/><path d="m32.47 60.62-5.12-.82c.38-.49.95-.57 1.24-.97l.84-1.2c.91.08 2.58 1.84 3.04 2.98Z" fill="#8F8F8F"/><path d="m45.46 77.62-.32-2.74h2.57l.04 1.1.02 1.2c0 .45-.07.55-.53.6-.6.08-1.2.03-1.78-.16Z" fill="#ADADAD"/><path d="M48.37 73.35c.02.15.04.27.04.39v3.84c0 .52-.05.59-.54.76-.87.31-1.82.3-2.67-.05a.59.59 0 0 1-.44-.52 999.3 999.3 0 0 0-.43-4.28 6.6 6.6 0 0 1 2.15.22c-.1.2-.31.12-.45.18-.32.13-.64.26-.95.42a.45.45 0 0 0-.22.5l.3 2.61c.06.41.1.49.52.53a9.8 9.8 0 0 0 1.71.05c.42-.03.7-.18.66-.8-.05-.76-.07-1.51-.07-2.27a.7.7 0 0 0-.42-.71c-.3-.14-.34-.36-.23-.67l1.04-.2ZM73.7 53.93l-.53 1.15a12.66 12.66 0 0 0-6.61-1.12c.4-.28.73-.57 1.31-.49 1.31.18 2.64.25 3.96.36.59.05 1.18.06 1.88.1ZM44.5 73.1a3.13 3.13 0 0 1 1.85-.77l.08.96c-.65.05-1.3-.01-1.94-.18ZM48.28 73.11l-.98.2v-.82c.42.02.7.27 1 .48l-.02.14Z" fill="#fff"/><path d="M45.25 74.58a1.32 1.32 0 0 1 1.2-.43l.1.43h-1.3ZM31.57 48.23a.4.4 0 0 1-.03.09.3.3 0 0 1-.37.12.3.3 0 0 1-.12-.08.25.25 0 0 1 0-.23c.1-.15.26-.11.52.1Z" fill="#fff"/><path d="M30.03 50.82c.36 0 .68.26.65.53-.02.25-.22.29-.42.29-.35 0-.67-.27-.65-.53.01-.2.17-.3.42-.3ZM29.44 53.7c-.38-.02-.71-.22-.73-.45a.45.45 0 0 1 .14-.35c.18-.14.63-.02.78.22a.55.55 0 0 1 .06.42c-.03.1-.21.13-.25.16ZM47.3 35.35H35.87v-8.09c.4-.1 10.84-.12 11.43-.02v8.11Zm-5.76-.23h5.14a.29.29 0 0 0 .3-.2.3.3 0 0 0 .02-.13v-6.68c0-.58-.02-.6-.57-.6h-9.7c-.56 0-.58.02-.58.59v6.42c0 .6 0 .6.63.6h4.76ZM47.89 47.8l-1.95-.65c-.64-.2-1.32-.23-2.01-.47.4-.26 1-.18 2.62.3.51.15 1.07.25 1.41.72l-.07.1ZM33.04 47.62c.24-.34 1.44-.8 2.9-1.18.2-.04.4-.18.66.05-.36.3-.79.29-1.15.43-.4.16-.82.29-1.24.42-.38.11-.74.34-1.17.28ZM29.38 47.26c-.46.06-1.34-.33-2.38-1.05-.12-.08-.3-.14-.2-.38.35-.01.57.26.85.4.32.16.62.34.93.5.28.15.57.28.86.41l-.06.12ZM49.87 47.42c.15-.34.42-.54 1.33-.97.82-.4.92-.42 1.32-.3-.41.36-.93.42-1.34.67-.4.24-.83.47-1.24.7l-.07-.1ZM46.9 48.39c-.33-.24-1.12-.25-1.56 0 .42.24 1.24.23 1.56 0Z" fill="#000"/><path d="M41.54 35.12h-4.76c-.63 0-.63 0-.63-.6V28.1c0-.57.02-.6.59-.6h9.69c.55 0 .58.03.58.6V34.8a.3.3 0 0 1-.2.31.29.29 0 0 1-.13.01h-5.14Zm-.28-3.63a.65.65 0 0 0-.84 0 .72.72 0 0 0-.1.23 170.52 170.52 0 0 0 .01 2.68.35.35 0 0 0 .38.23c.18-.02.36-.05.54-.1.06-.14.1-.28.12-.43.02-.73.02-1.45 0-2.18-.02-.15-.05-.3-.11-.43Zm-3.77 3.05-.01-.02c.72.3 1.03.09.95-.67a1.96 1.96 0 0 0-.09-.33c-.82-.17-1.16-.15-.88.98l.03.04Zm8.16 0c.07-.18.11-.36.13-.54.02-1.12.02-2.24 0-3.36a2.42 2.42 0 0 0-.13-.53 1.92 1.92 0 0 0-.44-.11c-.32 0-.4.07-.4.4v3.83c0 .33.08.41.4.4.15-.01.3-.05.44-.1Zm-2.93 0c.25-.5.1-1.03.11-1.54 0-.33-.1-.39-.48-.4-.4 0-.51.05-.54.4-.03.37-.03.76-.01 1.14.01.42.13.52.55.5.13-.02.26-.06.39-.12l-.02.02Zm1.47 0c.04-.06.1-.12.1-.18.02-.89.02-1.78.02-2.67 0-.1-.07-.25-.13-.26a1.74 1.74 0 0 0-.71-.02c-.1.02-.2.28-.2.43-.02.77-.02 1.54 0 2.3 0 .43.13.53.55.5.13-.02.26-.06.39-.12l-.02.02Zm-.08-5.39c-.53.42-1.05.8-1.55 1.2a.47.47 0 0 1-.58.02l-.82-.46a.51.51 0 0 0-.6.01l-2.63 1.9c-.06.06-.08.17-.13.27.3.1.44-.08.6-.2.68-.48 1.38-.95 2.04-1.47a.65.65 0 0 1 .89-.04c.21.15.45.26.68.4a.5.5 0 0 0 .63-.06l1.08-.83.61-.43.31.25c.24-.42.55-.76.67-1.32l-1.42.39.22.37Zm-4.22 4.38h.01v-.52c-.01-.58-.13-.67-.69-.62a.33.33 0 0 0-.33.22.34.34 0 0 0-.02.14c0 .5-.02 1.01 0 1.52.02.3.16.38.52.37.35 0 .48-.08.5-.38.03-.24.01-.48.01-.73Z" fill="#999"/><path d="m44.1 29.15-.2-.37 1.4-.4c-.1.57-.42.91-.66 1.33l-.31-.25-.61.43-1.08.83a.5.5 0 0 1-.63.05c-.23-.13-.47-.24-.68-.39a.65.65 0 0 0-.9.04c-.65.52-1.35 1-2.03 1.47-.16.12-.3.3-.6.2.05-.1.07-.21.13-.26l2.64-1.9a.51.51 0 0 1 .59-.02l.82.46a.47.47 0 0 0 .58-.01c.5-.4 1.02-.8 1.55-1.2ZM44.2 34.52c-.12.06-.25.1-.38.12-.42.03-.55-.07-.56-.5v-2.3c.01-.15.1-.4.21-.43.23-.04.48-.04.7.02.07 0 .14.17.14.26 0 .89 0 1.78-.02 2.67 0 .06-.06.12-.1.18l.03-1.52-.02-1.53h-.74c-.02.16-.05.3-.05.44v2.1c0 .5.05.53.54.52l.26-.03ZM42.74 34.52c-.13.06-.26.1-.4.12-.41.02-.53-.08-.54-.5-.02-.38-.02-.77.01-1.15.03-.34.13-.4.54-.39.38.01.48.07.48.4 0 .51.14 1.04-.11 1.54.06-.6.06-1.2-.01-1.8h-.68l-.07.12-.02.95c0 .8 0 .8.8.71ZM45.65 34.53c-.14.05-.29.09-.44.1-.32.01-.4-.07-.4-.4V30.4c0-.33.08-.4.4-.4.15.02.3.05.44.1h.02-.7c-.14.63-.1 4.05.04 4.44h.66-.02ZM39.89 33.53c0 .24.02.5 0 .73-.03.3-.16.38-.51.38-.36 0-.5-.07-.51-.37-.03-.5-.02-1.01 0-1.52a.34.34 0 0 1 .2-.34l.14-.02c.56-.05.68.04.69.62v.52h-.01Zm-.94-1v1.72c.01.24.2.3.42.3.2 0 .4-.04.42-.28.06-.58.05-1.16-.04-1.74h-.8Z" fill="#000"/><path d="M45.65 30.1c.07.18.11.36.13.54.02 1.12.02 2.24 0 3.36-.02.18-.06.36-.13.53h.02V30.1h-.02ZM41.25 34.53c-.18.05-.36.08-.54.1a.35.35 0 0 1-.38-.23 170.52 170.52 0 0 1-.01-2.68.72.72 0 0 1 .1-.23v-.02l-.01 2.29c0 .81.01.83.86.78h-.02ZM37.5 34.54l-.04-.04c-.28-1.13.06-1.15.88-.98l.1.33c.07.76-.24.97-.96.67l.15.02c.65.05.78-.1.7-.74a.9.9 0 0 0-.1-.22h-.73v.96Z" fill="#000"/><path d="M41.26 31.49c.06.14.1.28.11.43.02.73.02 1.45 0 2.18-.02.15-.06.3-.12.43h.02v-3.06l-.01.02Z" fill="#000"/><path d="M40.42 31.49a.65.65 0 0 1 .84 0v-.02h-.84v.02Z" fill="#000"/><path d="M44.2 34.52a2.5 2.5 0 0 1-.25.03c-.5.01-.53-.02-.54-.52v-2.1c0-.14.03-.28.05-.44h.74l.02 1.53-.03 1.52.02-.02ZM42.74 34.52c-.8.08-.8.08-.8-.71l.02-.95c0-.03.03-.05.07-.11h.68c.07.6.07 1.2.01 1.79l.02-.02ZM45.67 30.1v4.44H45c-.15-.4-.18-3.81-.03-4.44h.69ZM38.95 32.53h.8c.09.58.1 1.16.04 1.74-.02.24-.21.29-.42.29-.22 0-.4-.07-.41-.3-.02-.56-.01-1.12-.01-1.73ZM40.42 31.47h.85v3.07c-.85.05-.86.03-.86-.78v-2.29ZM37.5 34.54v-.96h.73a.9.9 0 0 1 .1.22c.08.64-.05.79-.7.74l-.15-.02.01.02Z" fill="#fff"/><path d="M29.1 73.66c-1.49-.08-2.99-.18-4.48-.3a4.7 4.7 0 0 1-4.28-3.2c-.35-1-.52-2.05-.48-3.1.02-1.78.04-3.55.04-5.32 0-1.07-.13-2.14-.4-3.18a2.97 2.97 0 0 0-1.13-1.82 2.14 2.14 0 0 1-.88-1.83c-.03-.63.04-1.26.2-1.87a3.45 3.45 0 0 1 2.99-2.58c.76-.12 1.55-.1 2.3.06-.62.77-1.2 1.5-1.79 2.2-.16.16-.35.29-.55.4-.6.39-.65.92-.08 1.35a2.66 2.66 0 0 1 1.11 1.78c.06.22.16.43.3.6.28.41.58.8.87 1.19.26.38.64.66 1.07.8.1.04.2.1.28.15.43.29.46.39.2.85a4.91 4.91 0 0 0-.44 3.9c.35 1.16 1.1 1.85 2.3 2l6.33.84 1.55.2c.14.71.23 1.39.4 2.05.28 1.04.6 2.08.93 3.12.18.54.52 1 .97 1.34.93.73 1.81.58 2.43-.42.53-.84.77-1.83.68-2.82-.05-.66-.21-1.31-.32-1.96-.05-.27-.2-.53-.1-.84.52.02 1.03.04 1.53.08.7.05 1.42.12 2.13.16 1.03.06 2.06.11 3.09.13 2.44.06 4.89.12 7.33.12a102.45 102.45 0 0 0 12.33-.64c2.04-.22 4.08-.55 6.11-.83l.68-.08c.95-.15 1.45-.76 1.67-1.66.13-.7.12-1.44-.05-2.14a8.83 8.83 0 0 0-.27-1.12 4.92 4.92 0 0 1-.27-1.55M29.1 73.66c2.36.13 4.72.23 7.07.32m-7.06-.32c2.35.13 4.7.24 7.06.32m0 0c1.8.07 3.6.1 5.4.14.7.01 1.39.05 2.09.06.13 0 .26-.02.4-.05l-.01-.62a.68.68 0 0 1 .4-.78c.47-.22.95-.42 1.42-.63l.38-.13-.02-.46c0-.33.07-.41.37-.45.44-.05.73.06.7.34-.06.65.3.9.8 1.1l.18.1a.87.87 0 0 1 .44.85c0 .24 0 .5.03.74l.56.03c5.49.02 10.97 0 16.45-.19 2.34-.08 4.68-.14 7.01-.24a5.72 5.72 0 0 0 3.2-1.15 3.07 3.07 0 0 0 1.27-2.05c.06-.32.06-.66.08-1m0 0 .52-7.7m-.52 7.7.52-7.7m0 0c.02-.76.15-1.51.4-2.23.3-.77.76-1.42 1.53-1.78a2.9 2.9 0 0 0 1.6-2.04c.32-1.29.07-2.5-.52-3.67-.14-.2-.3-.4-.5-.56-.28.26-.5.5-.74.68-.38.3-.77.55-1.16.82-.77.56-1.7.85-2.65.83h-1.31a.5.5 0 0 0-.52.26c-.26.46-.5.93-.52 1.47m0 0c-.03 1.35-.05 2.7-.05 4.05m.05-4.05c-.03 1.35-.04 2.7-.05 4.05m-47.35 5.65a2.11 2.11 0 0 1-1.68-1.42 4.67 4.67 0 0 1 .5-4.27l.62 1.05c.27.42.51.48.9.16.27-.25.53-.52.77-.8l3.18.52c.64.1 1.28.2 1.92.28.25.03.47.08.59.35.7 1.52 1.23 3.1 1.26 4.8l-.02.34h-.57l-4.83-.6m-2.64-.4c.88.15 1.76.28 2.64.4m-2.64-.4c.88.15 1.76.28 2.64.4m15.64 7.7a6.6 6.6 0 0 1 2.15.23c-.1.2-.31.12-.45.18-.32.13-.64.26-.95.42a.45.45 0 0 0-.22.5l.3 2.61c.06.41.1.49.52.53a9.8 9.8 0 0 0 1.71.05c.42-.03.7-.18.66-.8-.05-.76-.07-1.51-.07-2.27a.7.7 0 0 0-.42-.71c-.3-.14-.34-.36-.23-.67l1.04-.2c.02.15.04.27.04.39m-4.08-.25.43 4.28m-.43-4.28.43 4.28m0 0a.6.6 0 0 0 .44.52c.85.34 1.8.36 2.67.05.49-.17.54-.24.54-.76m0 0v-3.84m0 3.84v-3.84m-1.4-39.21v.26a.3.3 0 0 1-.2.31.29.29 0 0 1-.13.01H36.78c-.63 0-.63 0-.63-.6V28.1c0-.57.02-.6.59-.6h9.69c.55 0 .58.03.58.6m0 6.43V28.1m0 6.42V28.1m-5.75 3.38a.65.65 0 0 0-.84 0m.84 0c.06.14.1.28.11.43.02.73.02 1.45 0 2.18-.02.15-.06.3-.12.43m.01-3.04v-.02m-.84.02a.72.72 0 0 0-.1.23 170.52 170.52 0 0 0 .01 2.68.35.35 0 0 0 .38.23c.18-.02.36-.05.54-.1m-.83-3.04v-.02m.83 3.06h.02m-3.78 0h-.01m.01 0-.03-.03c-.28-1.13.06-1.15.88-.98l.1.33c.07.76-.24.97-.96.67m.01.02v-.96h.74a.9.9 0 0 1 .1.22c.08.64-.05.79-.7.74l-.15-.02m8.17.01c.07-.17.11-.35.13-.53.02-1.12.02-2.24 0-3.36a2.42 2.42 0 0 0-.13-.53m0 4.42c-.14.05-.29.09-.44.1-.32.01-.4-.07-.4-.4V30.4c0-.33.08-.4.4-.4.15.02.3.05.44.1m0 4.43h.02m-.02-4.42h.02m-2.95 4.43c.25-.5.1-1.03.11-1.54 0-.33-.1-.39-.48-.4-.4 0-.51.05-.54.4-.03.37-.03.76-.01 1.14.01.42.13.52.55.5.13-.02.26-.06.39-.12m-.02.02.02-.02m-.02.02c.06-.6.06-1.2-.01-1.8h-.68l-.07.12-.02.95c0 .8 0 .8.8.71m1.45.02c.04-.06.1-.12.1-.18.02-.89.02-1.78.02-2.67 0-.1-.07-.25-.13-.26a1.74 1.74 0 0 0-.71-.02c-.1.02-.2.28-.2.43-.02.77-.02 1.54 0 2.3 0 .43.13.53.55.5.13-.02.26-.06.39-.12m-.02.02.02-.02m-.02.02.03-1.52-.02-1.53h-.74c-.02.16-.05.3-.05.44m.8 2.59a2.5 2.5 0 0 1-.26.03c-.5.01-.53-.02-.54-.52m0-2.1v2.1m0-2.1v2.1m2.26-3.93h-.7c-.14.63-.1 4.05.04 4.44h.66m0-4.44v4.44m-5.25-3.07-.01 2.29c0 .81.01.83.86.78m-.85-3.07h.85m0 3.07v-3.07m7.36 43.02v3.29a.66.66 0 0 1-.43.67 4.01 4.01 0 0 1-3.25-.02.7.7 0 0 1-.42-.68l-.23-2.4-.1-.87c-.15-.02-.28-.04-.42-.04-3.68-.11-7.37-.19-11.05-.34-2.77-.12-5.54-.3-8.3-.52a4.75 4.75 0 0 1-4.14-2.88 7.4 7.4 0 0 1-.7-3.16c0-1.62.03-3.23.06-4.85.04-1.36-.1-2.73-.4-4.07a2.68 2.68 0 0 0-1.07-1.69 2.22 2.22 0 0 1-.93-1.7 6.4 6.4 0 0 1 .16-2.19 3.6 3.6 0 0 1 3.05-2.8c.56-.07 1.11-.1 1.67-.11h.5c-.12-.66-.27-1.3-.35-1.95-.07-.61-.07-1.23-.1-1.84l-.04-1.58c-.08-1.35.8-2.4 2.2-2.63 1.36-.22 2.74-.17 4.12-.07.95.07 1.91.1 2.92.16.19-.98.37-1.95.1-2.92a1.7 1.7 0 0 0-.47-.73c-.32-.3-.67-.56-1.04-.8a5.26 5.26 0 0 1-2.37-3.56c-.2-1-.24-2.03-.14-3.04a5.04 5.04 0 0 1 1.65-3.26c.48-.46 1-.88 1.56-1.23a46.57 46.57 0 0 1 10.5-4.83 13.2 13.2 0 0 1 4.7-.6 9.04 9.04 0 0 1 7.63 4.73c2.88 4.94.52 11.48-4.86 13.59a9.97 9.97 0 0 1-6.62.29c-.68-.2-1.38-.37-2.08-.51a3.14 3.14 0 0 0-1.95.24 7.72 7.72 0 0 0-3.35 2.61l-.11.18a.81.81 0 0 0-.04.16l.6-.05a8.8 8.8 0 0 1 2.87.04c.33.07.64.19.93.35a1.75 1.75 0 0 0 1.35.2 7.36 7.36 0 0 1 2.24-.17c.48-.02.97-.07 1.45-.16a23.3 23.3 0 0 1 4.18-.15c1.8.1 3.59.23 5.38.34.31.02.63.02.94.03 1.4 0 2.23.34 3.22 1.31.4-.4.79-.82 1.19-1.21.31-.31.62-.62.96-.9 1.47-1.2 2.89-1.26 4.46-.17.47.33.92.7 1.36 1.07.24.22.57.34.9.32 1.6-.02 3.21-.03 4.82 0 .6.02 1.18.1 1.76.21.3.07.6.2.87.36.59.34.84.87.87 1.56.05 1.02.19 2.03.29 3.04.02.22.17.26.36.3.8.17 1.61.31 2.4.55.57.19 1.13.44 1.66.74a1.34 1.34 0 0 1 .72.93c.03.13.11.24.22.32.39.28.68.67.83 1.12.42 1.14.64 2.3.28 3.5-.28.93-.8 1.67-1.7 2.09a2.6 2.6 0 0 0-1.28 1.34 5.5 5.5 0 0 0-.48 1.98l-.6 8.83a3.44 3.44 0 0 1-1.56 2.71 5.8 5.8 0 0 1-2.87 1.06c-1.38.1-2.76.15-4.14.18-4.83.1-9.67.2-14.5.28-1.75.02-3.5 0-5.24 0h-.6Zm2.4-25.77c.26.3.46.5.62.72a1.88 1.88 0 0 1 .28 1.89c-.2.55-.55 1.03-1.02 1.38a1.44 1.44 0 0 1-1.66.15 3.8 3.8 0 0 1-.87-.66c-.29-.31-.54-.64-.78-1-.58-.84-1.18-1.06-2.15-.74-1.28.42-2.6.7-3.94.81-1.71.13-3.42.17-5.13.12a2.7 2.7 0 0 1-1.48-.45 19.24 19.24 0 0 0-4.36-2.15 8.06 8.06 0 0 0-2.82-.47 3.62 3.62 0 0 0-3.38 2.9c-.1.53-.1 1.08.02 1.6.2.8.7 1.37 1.3 1.92a13.04 13.04 0 0 0 3.86 2.56c.8.35 1.52.88 2.1 1.55a10 10 0 0 1 1.48 2.29c.8 1.7 1.26 3.54 1.34 5.42.1 1.89.68 3.68 1.33 5.44.23.6.68 1.09 1.26 1.36a.99.99 0 0 0 1.28-.23c.21-.24.4-.5.53-.78.44-.93.57-1.97.39-2.98-.09-.55-.27-1.09-.37-1.64-.28-1.54 0-3.04.34-4.53.09-.4.41-.57.85-.51 1.47.18 2.94.4 4.42.56 1.44.15 2.88.3 4.32.35 2.08.07 4.16.05 6.24.04.78 0 1.57.02 2.33-.21a7.34 7.34 0 0 0 4.65-4.04c.23-.48.43-.96.63-1.45a8.19 8.19 0 0 1 4-4.41c.08-.06.17-.12.25-.2-.3-.04-.61-.04-.92 0-.27.01-.52.2-.92.1.1-.06.2-.12.3-.16.7-.23 1.45-.27 2.18-.13.56.11 1.13.2 1.7.25 1.62.1 3.24.2 4.87.27.74.05 1.5.05 2.24 0 1.4-.13 2.4-1.08 3.46-1.87a.4.4 0 0 0 .07-.08.72.72 0 0 0 0-1c-.16-.2-.34-.36-.56-.48a7.17 7.17 0 0 0-1.49-.62c-1.37-.33-2.76-.6-4.14-.87-1.15-.22-2.3-.39-3.45-.63a16.3 16.3 0 0 0-3.68-.44 9.37 9.37 0 0 0-6.23 2.22c-.36.32-.64.33-1.04.05-2.08-1.44-4.4-1.78-6.85-1.48-.44.05-.88.16-1.4.26Zm-6.27-27.3c-1.06.04-2.11.22-3.13.52a45.16 45.16 0 0 0-10.98 5c-.51.34-.99.72-1.42 1.15a4.9 4.9 0 0 0-1.57 3.18c-.1.98-.05 1.97.15 2.93a5 5 0 0 0 2.23 3.36c.27.17.5.38.77.55a2.12 2.12 0 0 1 1 2.02c-.05.8-.16 1.6-.25 2.4-.07.63-.17 1.25-.22 1.88-.02.23-.01.52.26.64a.6.6 0 0 0 .67-.19 7 7 0 0 0 .76-.8c.48-.62.95-1.26 1.39-1.91.8-1.2 1.94-2 3.2-2.63.76-.4 1.62-.53 2.45-.37.66.14 1.33.3 1.98.5 1.83.56 3.78.57 5.62.03a9.42 9.42 0 0 0 6.68-10.9c-.7-3.6-4.03-7.4-9.6-7.35Zm-21.6 28.7c.05-.01.1-.02.11-.05.57-.7 1.07-1.47 1.5-2.27.2-.43.47-.82.8-1.16.44-.48.9-.39 1.22.18.06.1.09.23.15.34l.3.54a.66.66 0 0 0 .69.37c.71-.01 1.43.09 2.11.3l.54.13c.11-.57.29-.78.65-.8a.67.67 0 0 1 .64.36c.1.26.01.44-.4.77l.67.3c.08.03.22.08.25.04.26-.28.48-.04.7.06l.88.35c.1.05.19.1.28.17l-.01.12-.48.06c.46.28.92.53 1.36.83.38.25.82.38 1.28.38h3.25c.17-.01.33-.03.5-.06.02-.12.02-.24.02-.37-.14-2.22-.2-4.45-.83-6.6-.01-.1 0-.21.02-.31l.12-.03c.08.12.15.25.2.38.1.3.18.6.24.92.3 1.57.47 3.16.53 4.75.02.4.06.79.09 1.18.09.02.18.04.27.04 1.3-.04 2.57-.25 3.81-.61.18-.07.33-.18.45-.33.85-1 2-1.67 3.29-1.91a3.2 3.2 0 0 1 2.1.2 1 1 0 0 0 .7.04c1.12-.27 2.27-.38 3.42-.33l.92.08.11-.15c.56-1.08 1.12-2.18 1.7-3.26a.42.42 0 0 0-.11-.55 3.06 3.06 0 0 0-1.95-.92c-.73-.07-1.46-.08-2.2-.13-1.8-.1-3.62-.24-5.43-.3-1.1-.02-2.2.02-3.29.11-.85.06-1.68.25-2.55.2a7 7 0 0 0-1.5.17c-.48.12-.98.05-1.41-.19a3.46 3.46 0 0 0-1.95-.5c-.65.02-1.3.11-1.93.1-.55-.02-.87.22-1.15.65-.3.45-.64.88-1 1.28-.18.21-.4.4-.64.53-.57.33-1.06.07-1.11-.59-.01-.35 0-.7.05-1.05.03-.35.08-.7.13-1.1-.24 0-.42-.02-.59-.03-.8-.04-1.6-.06-2.4-.13a15.59 15.59 0 0 0-3.76.04c-1.2.18-2.22.9-2.1 2.52.02.44 0 .88.02 1.32.03 1.05.03 2.1.3 3.13.07.3.13.62.42.8Zm50 10.68-.21.02c-1.66.3-3.32.64-4.99.9a119.6 119.6 0 0 1-7.94.93c-.3.03-.58.11-.83.27a6.67 6.67 0 0 1-3.58 1c-1.68 0-3.35.02-5.03 0-1.17 0-2.34 0-3.5-.11-1.84-.18-3.67-.44-5.5-.66a102.11 102.11 0 0 0-1.8-.18.46.46 0 0 0-.35.38c-.25 1.04-.4 2.1-.42 3.18 0 .33.06.38.4.4.46.04.9.08 1.36.1 1.9.11 3.8.26 5.7.3 2.94.08 5.9.22 8.84.08 1.7-.07 3.39-.09 5.08-.18a112.66 112.66 0 0 0 8.68-.87c.97-.13 1.93-.32 2.9-.45 1.06-.15 1.6-.6 1.73-1.64a7.45 7.45 0 0 0-.53-3.47Zm-.07-.34V60c-.02-.37-.06-.73-.06-1.1.01-.93.02-1.86.05-2.79.03-.71.05-.71-.62-1l-.69-.25c-1.75-.56-3.6-.73-5.42-.48a2.58 2.58 0 0 0-1.76.99c-.73.82-1.32 1.77-1.74 2.79-.15.37-.33.73-.49 1.1A8.03 8.03 0 0 1 60.45 62l-.3.34c4.4-.4 8.66-.91 12.94-1.87ZM70.73 48a7.1 7.1 0 0 0-.47-.6c-.5-.5-.97-1.01-1.5-1.46-1.44-1.2-2.89-2.39-4.34-3.57a5.26 5.26 0 0 0-.74-.49 2.88 2.88 0 0 0-3.35.16 9.96 9.96 0 0 0-2.73 2.8c-.63 1.03-1.13 2.13-1.69 3.2l-.06.24.17.06c1.22.24 2.38.74 3.4 1.44.32.23.48.2.8-.07a8.73 8.73 0 0 1 2.24-1.42c.08-.03.15-.08.22-.12-.66-.8-.66-.8-.6-1l.62.67a.52.52 0 0 0 .61.14c1.92-.63 3.88-.64 5.85-.3l1.57.32Zm4.12.65v-.37c-.1-.99-.17-1.98-.3-2.97-.03-.3-.15-.57-.35-.8a2.75 2.75 0 0 0-.91-.57 5.57 5.57 0 0 0-2.06-.31c-1.45-.02-2.9 0-4.34 0l-.4.03 3.26 2.77c.21-.13.43-.23.66-.33.22-.07.43-.34.73-.01l-1.12.6c.31.39.61.73.87 1.1a.73.73 0 0 0 .56.33c.84.12 1.68.26 2.53.4l.87.13ZM45.42 50.1h.27c.91-.13 1.6.23 2.09.99.1.15.19.3.3.43.3.45.7.83 1.16 1.1a1.28 1.28 0 0 0 1.6-.13c.41-.33.72-.77.9-1.26a1.65 1.65 0 0 0-.17-1.56 2.85 2.85 0 0 0-1.45-1.15 3.26 3.26 0 0 0-2-.02 5.5 5.5 0 0 0-2.7 1.6ZM32.47 60.6c-.46-1.14-2.13-2.9-3.04-2.97l-.84 1.19c-.3.4-.86.48-1.24.97l5.12.82Zm13 17.01c.56.19 1.17.24 1.77.16.46-.05.53-.15.53-.6l-.02-1.2-.04-1.1h-2.57l.32 2.74ZM73.7 53.93c-.7-.04-1.29-.05-1.88-.1-1.32-.1-2.65-.18-3.96-.36-.58-.08-.91.21-1.31.5 2.28-.15 4.5.06 6.61 1.1l.54-1.14ZM44.49 73.11c.63.17 1.29.23 1.94.18l-.08-.96c-.69.04-1.34.32-1.86.78Zm3.79 0 .01-.14c-.3-.21-.57-.46-1-.48v.82l.99-.2Zm-3.03 1.47h1.3l-.1-.43a1.31 1.31 0 0 0-1.2.43ZM31.57 48.23c-.26-.21-.42-.25-.51-.1a.25.25 0 0 0 0 .23.3.3 0 0 0 .48-.04.4.4 0 0 0 .03-.09Zm-1.54 2.59c-.25 0-.4.1-.42.29-.02.26.3.53.65.53.2 0 .4-.04.42-.3.03-.26-.3-.52-.65-.52Zm-.6 2.88c.05-.03.23-.07.26-.16a.55.55 0 0 0-.06-.42c-.15-.24-.6-.36-.78-.22a.45.45 0 0 0-.14.35c.02.23.35.43.73.45ZM47.3 35.35v-8.1c-.59-.11-11.03-.1-11.43.01v8.09H47.3Zm.59 12.46.07-.11c-.34-.47-.9-.57-1.41-.72-1.62-.48-2.22-.56-2.62-.3.7.24 1.37.27 2 .47.66.21 1.3.44 1.96.66Zm-14.85-.19c.43.06.79-.17 1.17-.28.42-.13.83-.26 1.24-.42.36-.14.8-.14 1.15-.43-.26-.23-.47-.1-.65-.05-1.47.38-2.67.84-2.91 1.18Zm-3.66-.36.06-.12-.86-.4c-.31-.17-.61-.35-.93-.5-.28-.15-.5-.42-.85-.41-.1.24.08.3.2.38 1.04.72 1.92 1.1 2.38 1.05Zm20.5.16.06.1 1.24-.7c.41-.25.93-.3 1.34-.68-.4-.11-.5-.09-1.32.3-.9.44-1.18.64-1.33.98Zm-4.54.97c.42.24 1.24.23 1.56 0-.33-.24-1.12-.25-1.56 0ZM44.1 29.15c-.53.42-1.05.8-1.55 1.2a.47.47 0 0 1-.58.02l-.82-.46a.51.51 0 0 0-.6.01l-2.63 1.9c-.06.06-.08.17-.13.27.3.1.44-.08.6-.2.68-.48 1.38-.95 2.04-1.47a.65.65 0 0 1 .89-.04c.21.15.45.26.68.4a.5.5 0 0 0 .63-.06l1.08-.83.61-.43.31.25c.24-.42.55-.76.67-1.32l-1.42.39.22.37Zm-4.22 4.38h.01v-.52c-.01-.58-.13-.67-.69-.62a.33.33 0 0 0-.33.22.34.34 0 0 0-.02.14c0 .5-.02 1.01 0 1.52.02.3.16.38.52.37.35 0 .48-.08.5-.38.03-.24.01-.48.01-.73Zm-.94-1v1.72c.01.24.2.3.42.3.2 0 .4-.04.42-.28.06-.58.05-1.16-.04-1.74h-.8Z" stroke="#000" stroke-width=".42" stroke-miterlimit="10"/></svg>